<svg xmlns="http://www.w3.org/2000/svg" width="35" height="16.789" viewBox="0 0 35 16.789">
  <g id="eagle_logo" data-name="eagle logo" transform="translate(0 0)">
    <path id="Tracciato_24094" data-name="Tracciato 24094" d="M303.026,4.938c.122-.426.426-.4.912-.4h1.186a2.066,2.066,0,0,0-1.7-1.642h-4.684c-.091,0-.122.061-.152.122a3.346,3.346,0,0,0-.547,1.855v.061h4.988M291.955,2.9H283.53a1.247,1.247,0,0,0-.03.335,2.133,2.133,0,0,0,1.186,1.7h8.942L291.955,2.9m2.494,2.981h-8.425a1.246,1.246,0,0,0-.03.335,2.133,2.133,0,0,0,1.186,1.7h8.942l-1.673-2.038M318.477,2.9h-8.425l-1.7,2.038h8.942a2.133,2.133,0,0,0,1.186-1.7.621.621,0,0,0,0-.335M307.589,5.881l-1.7,2.038h8.942a2.133,2.133,0,0,0,1.186-1.7,1.248,1.248,0,0,0-.03-.335h-8.395m-16.607,5.9a1.247,1.247,0,0,0-.03.335,2.133,2.133,0,0,0,1.186,1.7h4.2a2.506,2.506,0,0,1,2.19-1.46,1.512,1.512,0,0,1,.76.213.485.485,0,0,0,.243.091c.182,0,.274-.061.3-.243v-.03h.243v1.43h2.555l.547-1.551.03-.061s.243.7.547,1.642h6.174a2.133,2.133,0,0,0,1.186-1.7,1.365,1.365,0,0,0-.03-.335l-20.1-.03" transform="translate(-283.5 -2.9)" fill="#fff" fill-rule="evenodd"/>
    <path id="Tracciato_24095" data-name="Tracciato 24095" d="M321.21,34.8a1.44,1.44,0,0,0-1.4,1.217h2.616c-.213-.852-.76-1.217-1.217-1.217m-1.582,2.768a6.3,6.3,0,0,0,.122,1.4h2.433v-.76h-.517v-.274h1.764v.274h-.456v.76h1.277l.7-2.038h-5.323v.639m10.493,1.369a2.133,2.133,0,0,0,1.186-1.7,1.364,1.364,0,0,0-.03-.335h-4.562l.7,2.038h2.707m-11.436-2.007H316.13a1.246,1.246,0,0,0-.03.335,2.133,2.133,0,0,0,1.186,1.7h1.642a3.368,3.368,0,0,1-.335-1.4,4.612,4.612,0,0,1,.091-.639m2.4,3.406a1.026,1.026,0,0,0,.882-.456h-1.825a1.139,1.139,0,0,0,.943.456" transform="translate(-306.185 -25.098)" fill="#fff" fill-rule="evenodd"/>
    <path id="Tracciato_24096" data-name="Tracciato 24096" d="M317.067,24.736v.274h-2.19v-.274h.669l-.091-.3h-2.646l-.091.3h.487v.274h-1.186v-.274h.4l.091-.3h-.943v.547h-.274v-.03c-.03-.182-.122-.335-.243-.335a.862.862,0,0,0-.487.182,1.317,1.317,0,0,1-.882.3,2.052,2.052,0,0,1-1.521-.7h-.973a1.141,1.141,0,0,0-.03.335,2.133,2.133,0,0,0,1.186,1.7h7.877a2.133,2.133,0,0,0,1.186-1.7,1.363,1.363,0,0,0-.03-.335h-1.065l.091.3.669.03M313.934,12.6H309.25l-.091,2.038h5.323l-.547-2.038m2.464,2.981-.791.973-.821-.973h-5.657l-.152.973-.821-.973H299.73a1.247,1.247,0,0,0-.03.335,2.133,2.133,0,0,0,1.186,1.7h22.72a2.133,2.133,0,0,0,1.186-1.7,1.365,1.365,0,0,0-.03-.335H316.4m-1.947,5.9h-.639l-.426,1.277h1.521l-.456-1.277m.7,2.007L315,23h-1.673l-.182.487h2.007" transform="translate(-294.773 -9.65)" fill="#fff" fill-rule="evenodd"/>
  </g>
</svg>
